<?xml version="1.0" encoding="utf-8"?>
<!-- Generator: Adobe Illustrator 23.0.4, SVG Export Plug-In . SVG Version: 6.00 Build 0)  -->
<svg version="1.1" id="Layer_1" xmlns="http://www.w3.org/2000/svg" xmlns:xlink="http://www.w3.org/1999/xlink" x="0px" y="0px"
	 viewBox="0 0 192.6 198.1" style="enable-background:new 0 0 192.6 198.1;" xml:space="preserve">
<style type="text/css">
	.st0{fill:#FFFFFF;enable-background:new    ;}
	.st1{opacity:0.26;fill:#222222;enable-background:new    ;}
	.st2{fill:none;stroke:#006400;stroke-width:1.9997;stroke-miterlimit:10;}
	.st3{opacity:0.3;fill:#006400;}
	.st4{fill:#CDCDCD;}
	.st5{opacity:0.26;fill:#4D4D4D;enable-background:new    ;}
	.st6{fill:none;stroke:#006400;stroke-width:2.9993;stroke-miterlimit:10;}
	.st7{opacity:0.26;fill:#BDBDBD;enable-background:new    ;}
	.st8{fill:none;stroke:#006400;stroke-width:4.9989;stroke-miterlimit:10;}
	.st9{opacity:0.4;fill:none;stroke:#006400;stroke-width:6.9986;stroke-miterlimit:10;enable-background:new    ;}
	.st10{opacity:0.4;fill:none;stroke:#006400;stroke-width:1.9997;stroke-miterlimit:10;enable-background:new    ;}
	.st11{opacity:0.4;fill:none;stroke:#006400;stroke-width:4.9989;stroke-miterlimit:10;enable-background:new    ;}
	.st12{opacity:0.4;fill:none;stroke:#006400;stroke-width:7.9982;stroke-miterlimit:10;enable-background:new    ;}
	.st13{opacity:0.4;fill:none;stroke:#006400;stroke-width:2.9993;stroke-miterlimit:10;enable-background:new    ;}
	.st14{opacity:0.4;fill:none;stroke:#006400;stroke-width:3.9988;stroke-miterlimit:10;enable-background:new    ;}
	.st15{fill:none;stroke:#006400;stroke-width:5.9985;stroke-linecap:round;stroke-miterlimit:10;}
</style>
<g id="zooxs_x5F_bars">
	<g id="zoox_x5F_3">
		<ellipse id="XMLID_54_" class="st0" cx="59.1" cy="52.9" rx="30.9" ry="31.4"/>
		<ellipse id="XMLID_68_" class="st1" cx="59.1" cy="52.9" rx="30.9" ry="31.4"/>
		<ellipse id="XMLID_67_" class="st2" cx="59.1" cy="52.9" rx="30.9" ry="31.4"/>
		<path id="XMLID_66_" class="st3" d="M75.9,73.7c-1,1-7.1,6.1-14.7,5.6c-1,0-6.1,0-6.6-2c-0.5-1.5,1-3,2-3.5c2.5-2,4.6-1,7.1-1.5
			c5.6-1,9.6-7.6,11.1-12.2c1.5-5.1,0-8.1,2.5-10.1c2-1.5,5.1-1.5,6.6,0C87.5,54,84,66.6,75.9,73.7z"/>
		<path id="XMLID_61_" class="st3" d="M71.8,43.8c2.5,0,5.6-1.5,6.1-3.5c1-3.5-6.6-9.1-13.7-11.1c-9.1-2.5-20.3,1-21.8,6.1
			c-0.5,2.5,1.5,6.1,4.1,6.6c3.5,1,6.1-5.1,11.1-5.1C63.2,36.2,65.2,44.3,71.8,43.8z"/>
		<path id="XMLID_57_" class="st4" d="M56.6,66.1c2.5,1,10.6-6.6,8.6-11.1S52,50.4,51,52.9c-0.5,1,1.5,2.5,3.5,6.6
			C56.6,63.6,55.6,65.6,56.6,66.1z"/>
		<path id="XMLID_56_" class="st3" d="M51.5,70.7c-1-4.1-6.1-4.1-7.6-8.1c-2.5-5.1,4.1-9.1,2-15.7c-1.5-4.1-4.6-7.1-7.1-6.6
			c-3.5,1-3.5,10.6-3.5,13.7c0,5.1,0,11.1,3.5,16.2c3,3.5,8.1,7.6,10.6,6.1C51,74.7,51.5,72.7,51.5,70.7z"/>
	</g>
	<g id="zoox_x5F_2">
		<ellipse id="XMLID_69_" class="st0" cx="47.5" cy="133" rx="44.6" ry="45.6"/>
		<ellipse id="XMLID_53_" class="st5" cx="47.5" cy="133" rx="44.6" ry="45.6"/>
		<ellipse id="XMLID_52_" class="st6" cx="47.5" cy="133" rx="44.6" ry="45.6"/>
		<path id="XMLID_51_" class="st3" d="M71.3,162.9c-1.5,1-10.1,8.6-21.3,8.6c-1.5,0-8.6,0-9.6-3c-0.5-2,1.5-4.1,3-5.1
			c3.5-2.5,6.6-1.5,10.6-2c8.1-1.5,14.2-11.1,16.2-17.7c2.5-7.1,0-11.7,3.5-14.2c2.5-2,7.1-2,9.6,0.5
			C88.5,134.5,82.9,152.7,71.3,162.9z"/>
		<path id="XMLID_50_" class="st3" d="M65.7,119.8c3.5,0,8.1-2.5,8.6-5.1c1-5.1-9.1-13.2-19.8-15.7c-13.2-3.5-29.4,1.5-31.4,8.6
			c-1,3.5,2,8.6,5.1,9.6c5.6,1.5,8.6-7.6,16.2-7.6C53.6,108.7,56.6,120.3,65.7,119.8z"/>
		<path id="XMLID_49_" class="st3" d="M43.9,151.7c3.5,1.5,15.7-9.6,12.7-16.7c-3-6.6-18.7-6.6-20.3-3c-1,2,2.5,3.5,5.1,9.6
			C43.4,148.2,42.4,151.2,43.9,151.7z"/>
		<path id="XMLID_48_" class="st3" d="M36.3,158.3c-1-6.1-8.1-6.1-11.1-11.7c-3.5-7.6,5.6-13.2,3-22.8c-1.5-5.6-6.6-10.1-9.6-9.6
			c-5.1,1-5.1,15.7-5.1,19.8c0,7.1-0.5,15.7,5.1,23.3c4.1,5.6,11.7,11.1,15.2,8.6C35.8,164.9,36.3,161.4,36.3,158.3z"/>
	</g>
	<g id="zoox_x5F_1">
		<path id="XMLID_46_" class="st0" d="M125.5,30.1c0,30.2,0,114.7,0,142.9c-38.9,0-70.4-32-70.4-71.4S86.6,30.1,125.5,30.1z"/>
		<path id="XMLID_41_" class="st7" d="M125.5,30.1c0,28.6,0,109.2,0,142.9c-38.9,0-70.4-32-70.4-71.4S86.6,30.1,125.5,30.1z"/>
		<path id="XMLID_45_" class="st3" d="M125.5,161.6c-4.2-0.5-9.9-1.7-10.6-4.8c-1-3,2.5-6.6,5.1-8.1c1.9-1.4,3.7-2.1,5.6-2.4
			C125.5,152.4,125.5,157.3,125.5,161.6z"/>
		<path id="XMLID_44_" class="st3" d="M125.5,45.8C107.8,45,90.1,51.5,88,61c-1.5,5.6,3,13.2,8.1,14.7c8.6,2.5,13.2-11.7,25.3-12.2
			c1.4,0,2.8,0.2,4.1,0.6C125.5,56.9,125.5,50.6,125.5,45.8z"/>
		<path id="XMLID_43_" class="st3" d="M119.9,131c1.3,0.6,3.3,0.1,5.6-1.2c0-9.9,0-24.6,0-32.7c-7.9-1.1-16.3,0.4-17.7,3.5
			c-1,3,3.5,5.1,7.6,15.2C119.4,125.4,117.4,129.9,119.9,131z"/>
		<path id="XMLID_42_" class="st3" d="M107.8,141.6c-1.5-9.6-12.7-9.6-17.2-18.7c-5.1-11.7,9.1-20.8,4.6-36
			c-2.5-8.6-10.6-16.2-15.2-14.7c-7.6,2-8.1,24.3-8.1,30.9c0,11.7-0.5,24.8,8.1,36.5c6.6,8.6,18.2,17.2,24.3,13.7
			C107.3,151.2,108.8,145.7,107.8,141.6z"/>
		<path id="XMLID_40_" class="st8" d="M125.5,30.6c0,37.7,0,113.2,0,142.9c-38.9,0-70.4-32-70.4-71.4S86.6,30.6,125.5,30.6z"/>
	</g>
	<g id="bar_x5F_code">
		<line id="XMLID_37_" class="st9" x1="126.3" y1="171.7" x2="192.6" y2="171.7"/>
		<line id="XMLID_36_" class="st10" x1="126.3" y1="138.3" x2="192.6" y2="138.3"/>
		<line id="XMLID_35_" class="st11" x1="126.3" y1="126.1" x2="192.6" y2="126.1"/>
		<line id="XMLID_34_" class="st10" x1="126.3" y1="141.9" x2="192.6" y2="141.9"/>
		<line id="XMLID_33_" class="st12" x1="126.3" y1="55.2" x2="192.6" y2="55.2"/>
		<line id="XMLID_32_" class="st12" x1="126.3" y1="31.4" x2="192.6" y2="31.4"/>
		<line id="XMLID_31_" class="st13" x1="126.3" y1="164.1" x2="192.6" y2="164.1"/>
		<line id="XMLID_30_" class="st9" x1="126.3" y1="148.4" x2="192.6" y2="148.4"/>
		<line id="XMLID_29_" class="st14" x1="126.3" y1="78.5" x2="192.6" y2="78.5"/>
		<line id="XMLID_28_" class="st9" x1="126.3" y1="117.5" x2="192.6" y2="117.5"/>
		<line id="XMLID_27_" class="st14" x1="126.3" y1="99.3" x2="192.6" y2="99.3"/>
		<line id="XMLID_26_" class="st10" x1="126.3" y1="83.6" x2="192.6" y2="83.6"/>
		<line id="XMLID_25_" class="st11" x1="126.3" y1="71.4" x2="192.6" y2="71.4"/>
		<line id="XMLID_24_" class="st13" x1="126.3" y1="104.4" x2="192.6" y2="104.4"/>
		<line id="XMLID_3_" class="st10" x1="126.3" y1="87.1" x2="192.6" y2="87.1"/>
		<line id="XMLID_2_" class="st10" x1="126.3" y1="45.6" x2="192.6" y2="45.6"/>
		<line id="XMLID_1_" class="st13" x1="126.3" y1="39.5" x2="192.6" y2="39.5"/>
		<line id="XMLID_38_" class="st15" x1="125.8" y1="194.5" x2="125.8" y2="3.5"/>
	</g>
</g>
</svg>
